<svg xmlns="http://www.w3.org/2000/svg" xmlns:xlink="http://www.w3.org/1999/xlink" viewBox="0 0 1358.98 829.54"><defs><style>.cls-1{opacity:0.86;}.cls-2{fill:url(#linear-gradient);}.cls-3{fill:url(#linear-gradient-2);}.cls-4{fill:url(#linear-gradient-3);}.cls-5{fill:url(#linear-gradient-4);}.cls-6{fill:url(#linear-gradient-5);}.cls-7{fill:url(#linear-gradient-6);}.cls-8{fill:url(#linear-gradient-7);}.cls-9{fill:url(#linear-gradient-8);}.cls-10{fill:url(#linear-gradient-9);}.cls-11{opacity:0.3;}.cls-12{fill:url(#linear-gradient-10);}.cls-13{fill:url(#linear-gradient-11);}.cls-14{fill:url(#linear-gradient-12);}.cls-15{fill:url(#linear-gradient-13);}.cls-16{fill:url(#linear-gradient-14);}.cls-17{fill:url(#linear-gradient-15);}.cls-18{fill:url(#linear-gradient-16);}.cls-19{fill:url(#linear-gradient-17);}.cls-20{fill:url(#linear-gradient-18);}.cls-21{fill:url(#linear-gradient-19);}.cls-22{fill:url(#linear-gradient-20);}.cls-23{fill:url(#linear-gradient-21);}.cls-24{fill:url(#linear-gradient-22);}.cls-25{fill:url(#linear-gradient-23);}.cls-26{fill:url(#linear-gradient-24);}.cls-27{fill:url(#linear-gradient-25);}.cls-28{fill:url(#linear-gradient-26);}.cls-29{fill:url(#linear-gradient-27);}.cls-30{fill:url(#linear-gradient-28);}.cls-31{fill:url(#linear-gradient-29);}.cls-32{fill:url(#linear-gradient-30);}.cls-33{fill:url(#linear-gradient-31);}.cls-34{fill:url(#linear-gradient-32);}.cls-35{fill:url(#linear-gradient-33);}.cls-36{fill:url(#linear-gradient-34);}.cls-37{fill:url(#linear-gradient-35);}.cls-38{fill:url(#linear-gradient-36);}.cls-39{fill:url(#linear-gradient-37);}.cls-40{fill:url(#linear-gradient-38);}.cls-41{fill:url(#linear-gradient-39);}.cls-42{fill:url(#linear-gradient-40);}.cls-43{fill:url(#linear-gradient-41);}.cls-44{fill:url(#linear-gradient-42);}.cls-45{fill:url(#linear-gradient-43);}.cls-46{opacity:0.5;}.cls-47{fill:url(#linear-gradient-44);}.cls-48{fill:url(#linear-gradient-45);}.cls-49{fill:url(#linear-gradient-46);}.cls-50{fill:url(#linear-gradient-47);}.cls-51{fill:url(#linear-gradient-48);}.cls-52{fill:url(#linear-gradient-49);}.cls-53{fill:url(#linear-gradient-50);}.cls-54{fill:url(#linear-gradient-51);}.cls-55{fill:url(#linear-gradient-52);}.cls-56{fill:url(#linear-gradient-53);}.cls-57{fill:url(#linear-gradient-54);}.cls-58{fill:url(#linear-gradient-55);}.cls-59{fill:url(#linear-gradient-56);}.cls-60{fill:url(#linear-gradient-57);}.cls-61{fill:url(#linear-gradient-58);}.cls-62{fill:url(#linear-gradient-59);}.cls-63{fill:url(#linear-gradient-60);}.cls-64{fill:url(#linear-gradient-61);}.cls-65{fill:url(#linear-gradient-62);}.cls-66{fill:url(#linear-gradient-63);}.cls-67{fill:url(#linear-gradient-64);}.cls-68{fill:url(#linear-gradient-65);}.cls-69{fill:url(#linear-gradient-66);}.cls-70{fill:url(#linear-gradient-67);}.cls-71{fill:url(#linear-gradient-68);}.cls-72{fill:url(#linear-gradient-69);}.cls-73{opacity:0.9;}.cls-74{fill:url(#linear-gradient-70);}.cls-75{fill:url(#linear-gradient-71);}.cls-76{fill:url(#linear-gradient-72);}.cls-77{fill:url(#linear-gradient-73);}.cls-78{fill:url(#linear-gradient-74);}.cls-79{fill:url(#linear-gradient-75);}.cls-80{fill:url(#linear-gradient-76);}.cls-81{fill:url(#linear-gradient-77);}.cls-82{fill:url(#linear-gradient-78);}.cls-83{fill:url(#linear-gradient-79);}.cls-84{fill:url(#linear-gradient-80);}.cls-85{fill:url(#linear-gradient-81);}.cls-86{fill:url(#linear-gradient-82);}.cls-87{fill:url(#linear-gradient-83);}.cls-88{fill:url(#linear-gradient-84);}.cls-89{fill:url(#linear-gradient-85);}.cls-90{fill:url(#linear-gradient-86);}</style><linearGradient id="linear-gradient" x1="-241.68" y1="358.93" x2="-241.68" y2="9.36" gradientTransform="translate(851.22 648.6) rotate(180)" gradientUnits="userSpaceOnUse"><stop offset="0" stop-color="#d11f2c"/><stop offset="0.19" stop-color="#de4631"/><stop offset="0.38" stop-color="#ea6936"/><stop offset="0.48" stop-color="#ee7638"/><stop offset="0.59" stop-color="#ee6a46"/><stop offset="0.81" stop-color="#ee4b6b"/><stop offset="1" stop-color="#ee2a92"/></linearGradient><linearGradient id="linear-gradient-2" x1="-387.3" y1="373.51" x2="-387.3" y2="23.94" xlink:href="#linear-gradient"/><linearGradient id="linear-gradient-3" x1="-4626.2" y1="415.65" x2="-4626.2" y2="-18.2" gradientTransform="matrix(1, 0, 0, -1, 5800.11, 648.6)" xlink:href="#linear-gradient"/><linearGradient id="linear-gradient-4" x1="-456.9" y1="213.87" x2="-456.9" y2="26.86" xlink:href="#linear-gradient"/><linearGradient id="linear-gradient-5" x1="-5258.56" y1="170.63" x2="-5258.56" y2="-16.39" gradientTransform="matrix(1, 0, 0, -1, 6594.86, 648.6)" xlink:href="#linear-gradient"/><linearGradient id="linear-gradient-6" x1="-4670.46" y1="321.56" x2="-4670.46" y2="-28" gradientTransform="matrix(1, 0, 0, -1, 5800.11, 648.6)" xlink:href="#linear-gradient"/><linearGradient id="linear-gradient-7" x1="-4599.48" y1="350.66" x2="-4599.48" y2="1.09" gradientTransform="matrix(1, 0, 0, -1, 5800.11, 648.6)" xlink:href="#linear-gradient"/><linearGradient id="linear-gradient-8" x1="-4526.7" y1="252.91" x2="-4526.7" y2="-180.94" gradientTransform="matrix(1, 0, 0, -1, 5800.11, 648.6)" xlink:href="#linear-gradient"/><linearGradient id="linear-gradient-9" x1="-194.99" y1="251.9" x2="-194.99" y2="-97.66" xlink:href="#linear-gradient"/><linearGradient id="linear-gradient-10" x1="-775.26" y1="302.14" x2="-775.26" y2="46.68" gradientTransform="translate(-704.54 648.6) rotate(180)" gradientUnits="userSpaceOnUse"><stop offset="0" stop-color="#d92a2f"/><stop offset="0.08" stop-color="#e13630"/><stop offset="0.34" stop-color="#f75932"/><stop offset="0.48" stop-color="#f63"/><stop offset="0.64" stop-color="#fb5827"/><stop offset="0.94" stop-color="#f13308"/><stop offset="1" stop-color="#ee2a00"/></linearGradient><linearGradient id="linear-gradient-11" x1="-909.31" y1="312.79" x2="-909.31" y2="57.34" xlink:href="#linear-gradient-10"/><linearGradient id="linear-gradient-12" x1="-4099.45" y1="343.59" x2="-4099.45" y2="26.54" gradientTransform="matrix(1, 0, 0, -1, 4244.35, 648.6)" xlink:href="#linear-gradient-10"/><linearGradient id="linear-gradient-13" x1="-985.24" y1="196.14" x2="-985.24" y2="59.47" xlink:href="#linear-gradient-10"/><linearGradient id="linear-gradient-14" x1="1849.36" y1="484.07" x2="1849.36" y2="661.84" gradientTransform="translate(-1555.76)" xlink:href="#linear-gradient-10"/><linearGradient id="linear-gradient-15" x1="-792.08" y1="302.14" x2="-792.08" y2="46.68" xlink:href="#linear-gradient-10"/><linearGradient id="linear-gradient-16" x1="-4119.71" y1="343.59" x2="-4119.71" y2="26.54" gradientTransform="matrix(1, 0, 0, -1, 4244.35, 648.6)" xlink:href="#linear-gradient-10"/><linearGradient id="linear-gradient-17" x1="1660.13" y1="368.52" x2="1660.13" y2="636.74" gradientTransform="translate(-1555.76)" xlink:href="#linear-gradient-10"/><linearGradient id="linear-gradient-18" x1="-892.89" y1="312.79" x2="-892.89" y2="57.34" xlink:href="#linear-gradient-10"/><linearGradient id="linear-gradient-19" x1="-4087.22" y1="343.59" x2="-4087.22" y2="26.54" gradientTransform="matrix(1, 0, 0, -1, 4244.35, 648.6)" xlink:href="#linear-gradient-10"/><linearGradient id="linear-gradient-20" x1="1725.13" y1="352.51" x2="1725.13" y2="607.96" gradientTransform="translate(-1555.76)" xlink:href="#linear-gradient-10"/><linearGradient id="linear-gradient-21" x1="-922.95" y1="312.79" x2="-922.95" y2="57.34" xlink:href="#linear-gradient-10"/><linearGradient id="linear-gradient-22" x1="1791.78" y1="423.94" x2="1791.78" y2="1024.67" gradientTransform="translate(-1555.76)" xlink:href="#linear-gradient-10"/><linearGradient id="linear-gradient-23" x1="-958.3" y1="196.14" x2="-958.3" y2="59.47" xlink:href="#linear-gradient-10"/><linearGradient id="linear-gradient-24" x1="1823.56" y1="415.09" x2="1823.56" y2="749.12" gradientTransform="translate(-1555.76)" xlink:href="#linear-gradient-10"/><linearGradient id="linear-gradient-25" x1="-755.62" y1="302.14" x2="-755.62" y2="46.68" xlink:href="#linear-gradient-10"/><linearGradient id="linear-gradient-26" x1="1583.72" y1="424.67" x2="1583.72" y2="792.84" gradientTransform="translate(-1555.76)" xlink:href="#linear-gradient-10"/><linearGradient id="linear-gradient-27" x1="-113.06" y1="583.24" x2="-113.06" y2="180.43" gradientTransform="matrix(1, 0, 0, -1, 959.33, 648.6)" xlink:href="#linear-gradient-10"/><linearGradient id="linear-gradient-28" x1="-324.43" y1="600.04" x2="-324.43" y2="197.23" gradientTransform="matrix(1, 0, 0, -1, 959.33, 648.6)" xlink:href="#linear-gradient-10"/><linearGradient id="linear-gradient-29" x1="-4718.86" y1="648.6" x2="-4718.86" y2="148.67" gradientTransform="translate(-3989.56 648.6) rotate(180)" xlink:href="#linear-gradient-10"/><linearGradient id="linear-gradient-30" x1="-444.17" y1="416.1" x2="-444.17" y2="200.6" gradientTransform="matrix(1, 0, 0, -1, 959.33, 648.6)" xlink:href="#linear-gradient-10"/><linearGradient id="linear-gradient-31" x1="1315.73" y1="282.34" x2="1315.73" y2="562.66" gradientTransform="matrix(-1, 0, 0, 1, 1810.55, 0)" xlink:href="#linear-gradient-10"/><linearGradient id="linear-gradient-32" x1="-139.59" y1="583.24" x2="-139.59" y2="180.43" gradientTransform="matrix(1, 0, 0, -1, 959.33, 648.6)" xlink:href="#linear-gradient-10"/><linearGradient id="linear-gradient-33" x1="-4750.81" y1="648.6" x2="-4750.81" y2="148.67" gradientTransform="translate(-3989.56 648.6) rotate(180)" xlink:href="#linear-gradient-10"/><linearGradient id="linear-gradient-34" x1="1017.34" y1="100.13" x2="1017.34" y2="523.08" gradientTransform="matrix(-1, 0, 0, 1, 1810.55, 0)" xlink:href="#linear-gradient-10"/><linearGradient id="linear-gradient-35" x1="-298.54" y1="600.04" x2="-298.54" y2="197.23" gradientTransform="matrix(1, 0, 0, -1, 959.33, 648.6)" xlink:href="#linear-gradient-10"/><linearGradient id="linear-gradient-36" x1="-4699.57" y1="648.6" x2="-4699.57" y2="148.67" gradientTransform="translate(-3989.56 648.6) rotate(180)" xlink:href="#linear-gradient-10"/><linearGradient id="linear-gradient-37" x1="1119.84" y1="74.89" x2="1119.84" y2="477.7" gradientTransform="matrix(-1, 0, 0, 1, 1810.55, 0)" xlink:href="#linear-gradient-10"/><linearGradient id="linear-gradient-38" x1="-345.95" y1="600.04" x2="-345.95" y2="197.23" gradientTransform="matrix(1, 0, 0, -1, 959.33, 648.6)" xlink:href="#linear-gradient-10"/><linearGradient id="linear-gradient-39" x1="1224.93" y1="187.52" x2="1224.93" y2="1134.77" gradientTransform="matrix(-1, 0, 0, 1, 1810.55, 0)" xlink:href="#linear-gradient-10"/><linearGradient id="linear-gradient-40" x1="-401.68" y1="416.1" x2="-401.68" y2="200.6" gradientTransform="matrix(1, 0, 0, -1, 959.33, 648.6)" xlink:href="#linear-gradient-10"/><linearGradient id="linear-gradient-41" x1="1275.05" y1="173.56" x2="1275.05" y2="700.28" gradientTransform="matrix(-1, 0, 0, 1, 1810.55, 0)" xlink:href="#linear-gradient-10"/><linearGradient id="linear-gradient-42" x1="-82.1" y1="583.24" x2="-82.1" y2="180.43" gradientTransform="matrix(1, 0, 0, -1, 959.33, 648.6)" xlink:href="#linear-gradient-10"/><linearGradient id="linear-gradient-43" x1="896.86" y1="188.68" x2="896.86" y2="769.22" gradientTransform="matrix(-1, 0, 0, 1, 1810.55, 0)" xlink:href="#linear-gradient-10"/><linearGradient id="linear-gradient-44" x1="-594.46" y1="367.04" x2="-594.46" y2="50.53" gradientTransform="matrix(1, 0, 0, -1, 959.33, 648.6)" xlink:href="#linear-gradient-10"/><linearGradient id="linear-gradient-45" x1="-727" y1="380.24" x2="-727" y2="63.74" gradientTransform="matrix(1, 0, 0, -1, 959.33, 648.6)" xlink:href="#linear-gradient-10"/><linearGradient id="linear-gradient-46" x1="-4281.08" y1="418.4" x2="-4281.08" y2="25.58" gradientTransform="translate(-3989.56 648.6) rotate(180)" xlink:href="#linear-gradient-10"/><linearGradient id="linear-gradient-47" x1="-802.08" y1="235.71" x2="-802.08" y2="66.38" gradientTransform="matrix(1, 0, 0, -1, 959.33, 648.6)" xlink:href="#linear-gradient-10"/><linearGradient id="linear-gradient-48" x1="1666.06" y1="452.05" x2="1666.06" y2="672.31" gradientTransform="matrix(-1, 0, 0, 1, 1810.55, 0)" xlink:href="#linear-gradient-10"/><linearGradient id="linear-gradient-49" x1="-611.1" y1="367.04" x2="-611.1" y2="50.53" gradientTransform="matrix(1, 0, 0, -1, 959.33, 648.6)" xlink:href="#linear-gradient-10"/><linearGradient id="linear-gradient-50" x1="-4301.12" y1="418.4" x2="-4301.12" y2="25.58" gradientTransform="translate(-3989.56 648.6) rotate(180)" xlink:href="#linear-gradient-10"/><linearGradient id="linear-gradient-51" x1="1478.96" y1="308.88" x2="1478.96" y2="641.21" gradientTransform="matrix(-1, 0, 0, 1, 1810.55, 0)" xlink:href="#linear-gradient-10"/><linearGradient id="linear-gradient-52" x1="-710.77" y1="380.24" x2="-710.77" y2="63.74" gradientTransform="matrix(1, 0, 0, -1, 959.33, 648.6)" xlink:href="#linear-gradient-10"/><linearGradient id="linear-gradient-53" x1="-4268.98" y1="418.4" x2="-4268.98" y2="25.58" gradientTransform="translate(-3989.56 648.6) rotate(180)" xlink:href="#linear-gradient-10"/><linearGradient id="linear-gradient-54" x1="1543.23" y1="289.04" x2="1543.23" y2="605.55" gradientTransform="matrix(-1, 0, 0, 1, 1810.55, 0)" xlink:href="#linear-gradient-10"/><linearGradient id="linear-gradient-55" x1="-740.49" y1="380.24" x2="-740.49" y2="63.74" gradientTransform="matrix(1, 0, 0, -1, 959.33, 648.6)" xlink:href="#linear-gradient-10"/><linearGradient id="linear-gradient-56" x1="1609.12" y1="377.55" x2="1609.12" y2="1121.86" gradientTransform="matrix(-1, 0, 0, 1, 1810.55, 0)" xlink:href="#linear-gradient-10"/><linearGradient id="linear-gradient-57" x1="-775.44" y1="235.71" x2="-775.44" y2="66.38" gradientTransform="matrix(1, 0, 0, -1, 959.33, 648.6)" xlink:href="#linear-gradient-10"/><linearGradient id="linear-gradient-58" x1="1640.55" y1="366.58" x2="1640.55" y2="780.45" gradientTransform="matrix(-1, 0, 0, 1, 1810.55, 0)" xlink:href="#linear-gradient-10"/><linearGradient id="linear-gradient-59" x1="-575.05" y1="367.04" x2="-575.05" y2="50.53" gradientTransform="matrix(1, 0, 0, -1, 959.33, 648.6)" xlink:href="#linear-gradient-10"/><linearGradient id="linear-gradient-60" x1="1403.41" y1="378.46" x2="1403.41" y2="834.62" gradientTransform="matrix(-1, 0, 0, 1, 1810.55, 0)" xlink:href="#linear-gradient-10"/><linearGradient id="linear-gradient-61" x1="382.53" y1="489.48" x2="382.53" y2="86.67" xlink:href="#linear-gradient"/><linearGradient id="linear-gradient-62" x1="214.74" y1="506.28" x2="214.74" y2="103.47" xlink:href="#linear-gradient"/><linearGradient id="linear-gradient-63" x1="-5238.08" y1="554.84" x2="-5238.08" y2="54.91" gradientTransform="matrix(1, 0, 0, -1, 5800.11, 648.6)" xlink:href="#linear-gradient"/><linearGradient id="linear-gradient-64" x1="134.54" y1="322.34" x2="134.54" y2="106.84" xlink:href="#linear-gradient"/><linearGradient id="linear-gradient-65" x1="-5845.71" y1="272.5" x2="-5845.71" y2="57.01" gradientTransform="matrix(1, 0, 0, -1, 6594.86, 648.6)" xlink:href="#linear-gradient"/><linearGradient id="linear-gradient-66" x1="-5289.08" y1="446.43" x2="-5289.08" y2="43.62" gradientTransform="matrix(1, 0, 0, -1, 5800.11, 648.6)" xlink:href="#linear-gradient"/><linearGradient id="linear-gradient-67" x1="-5207.29" y1="479.95" x2="-5207.29" y2="77.14" gradientTransform="matrix(1, 0, 0, -1, 5800.11, 648.6)" xlink:href="#linear-gradient"/><linearGradient id="linear-gradient-68" x1="-5123.42" y1="367.32" x2="-5123.42" y2="-132.61" gradientTransform="matrix(1, 0, 0, -1, 5800.11, 648.6)" xlink:href="#linear-gradient"/><linearGradient id="linear-gradient-69" x1="436.33" y1="366.16" x2="436.33" y2="-36.65" xlink:href="#linear-gradient"/><linearGradient id="linear-gradient-70" x1="50.24" y1="552.33" x2="50.24" y2="149.53" gradientTransform="matrix(1, 0, 0, -1, 959.33, 648.6)" xlink:href="#linear-gradient-10"/><linearGradient id="linear-gradient-71" x1="-118.44" y1="569.13" x2="-118.44" y2="166.33" gradientTransform="matrix(1, 0, 0, -1, 959.33, 648.6)" xlink:href="#linear-gradient-10"/><linearGradient id="linear-gradient-72" x1="-4905.79" y1="617.69" x2="-4905.79" y2="117.77" gradientTransform="translate(-3989.56 648.6) rotate(180)" xlink:href="#linear-gradient-10"/><linearGradient id="linear-gradient-73" x1="-213.99" y1="385.19" x2="-213.99" y2="169.7" gradientTransform="matrix(1, 0, 0, -1, 959.33, 648.6)" xlink:href="#linear-gradient-10"/><linearGradient id="linear-gradient-74" x1="1081.44" y1="313.24" x2="1081.44" y2="593.56" gradientTransform="matrix(-1, 0, 0, 1, 1810.55, 0)" xlink:href="#linear-gradient-10"/><linearGradient id="linear-gradient-75" x1="29.07" y1="552.33" x2="29.07" y2="149.53" gradientTransform="matrix(1, 0, 0, -1, 959.33, 648.6)" xlink:href="#linear-gradient-10"/><linearGradient id="linear-gradient-76" x1="-4931.29" y1="617.69" x2="-4931.29" y2="117.77" gradientTransform="translate(-3989.56 648.6) rotate(180)" xlink:href="#linear-gradient-10"/><linearGradient id="linear-gradient-77" x1="843.33" y1="131.04" x2="843.33" y2="553.98" gradientTransform="matrix(-1, 0, 0, 1, 1810.55, 0)" xlink:href="#linear-gradient-10"/><linearGradient id="linear-gradient-78" x1="-97.77" y1="569.13" x2="-97.77" y2="166.33" gradientTransform="matrix(1, 0, 0, -1, 959.33, 648.6)" xlink:href="#linear-gradient-10"/><linearGradient id="linear-gradient-79" x1="-4890.39" y1="617.69" x2="-4890.39" y2="117.77" gradientTransform="translate(-3989.56 648.6) rotate(180)" xlink:href="#linear-gradient-10"/><linearGradient id="linear-gradient-80" x1="925.12" y1="105.79" x2="925.12" y2="508.6" gradientTransform="matrix(-1, 0, 0, 1, 1810.55, 0)" xlink:href="#linear-gradient-10"/><linearGradient id="linear-gradient-81" x1="-135.6" y1="569.13" x2="-135.6" y2="166.33" gradientTransform="matrix(1, 0, 0, -1, 959.33, 648.6)" xlink:href="#linear-gradient-10"/><linearGradient id="linear-gradient-82" x1="1008.98" y1="218.43" x2="1008.98" y2="1165.68" gradientTransform="matrix(-1, 0, 0, 1, 1810.55, 0)" xlink:href="#linear-gradient-10"/><linearGradient id="linear-gradient-83" x1="-180.08" y1="385.19" x2="-180.08" y2="169.7" gradientTransform="matrix(1, 0, 0, -1, 959.33, 648.6)" xlink:href="#linear-gradient-10"/><linearGradient id="linear-gradient-84" x1="1048.97" y1="204.47" x2="1048.97" y2="731.19" gradientTransform="matrix(-1, 0, 0, 1, 1810.55, 0)" xlink:href="#linear-gradient-10"/><linearGradient id="linear-gradient-85" x1="74.94" y1="552.33" x2="74.94" y2="149.53" gradientTransform="matrix(1, 0, 0, -1, 959.33, 648.6)" xlink:href="#linear-gradient-10"/><linearGradient id="linear-gradient-86" x1="747.18" y1="219.59" x2="747.18" y2="800.13" gradientTransform="matrix(-1, 0, 0, 1, 1810.55, 0)" xlink:href="#linear-gradient-10"/></defs><title>Asset 28</title><g id="Layer_2" data-name="Layer 2"><g id="BACK_MED" data-name="BACK MED"><g class="cls-1"><polygon class="cls-2" points="1066.18 336.68 1066.18 639.24 1119.63 639.24 1119.63 289.67 1083.37 289.67 1066.18 336.68"/><polygon class="cls-3" points="1215.36 312.37 1215.36 624.66 1261.68 624.66 1261.68 275.09 1234.18 275.09 1215.36 312.37"/><polygon class="cls-4" points="1200.63 271.11 1200.63 666.8 1147.19 666.8 1147.19 232.95 1183.44 232.95 1200.63 271.11"/><polygon class="cls-5" points="1285.43 454.67 1285.43 621.74 1330.81 621.74 1330.81 434.73 1303.87 434.73 1285.43 454.67"/><polygon class="cls-6" points="1358.98 493.59 1358.98 664.99 1313.61 664.99 1313.61 477.97 1340.55 477.97 1358.98 493.59"/><polygon class="cls-7" points="1156.38 341.74 1156.38 676.6 1102.93 676.6 1102.93 327.04 1139.19 327.04 1156.38 341.74"/><polygon class="cls-8" points="1227.36 327.04 1227.36 647.51 1173.91 647.51 1173.91 297.94 1210.17 297.94 1227.36 327.04"/><polygon class="cls-9" points="1300.13 464.46 1300.13 829.54 1246.69 829.54 1246.69 395.69 1282.94 395.69 1300.13 464.46"/><polygon class="cls-10" points="1015.68 433.97 1015.68 746.26 1076.75 746.26 1076.75 396.7 1040.5 396.7 1015.68 433.97"/></g><g class="cls-11"><polygon class="cls-12" points="95.19 373.77 95.19 346.46 61.99 346.46 46.25 380.81 46.25 424.67 55.93 424.67 55.93 601.92 79.9 601.92 79.9 373.77 95.19 373.77"/><polygon class="cls-13" points="225.28 423.94 225.28 335.81 200.09 335.81 184.26 360.83 193.84 373.77 193.84 591.26 211.55 591.26 211.55 423.94 225.28 423.94"/><polygon class="cls-14" points="144.9 352.51 169.37 352.51 169.37 332.9 153.63 305.01 120.43 305.01 120.43 378.77 128.84 384.51 128.84 622.06 169.37 622.06 169.37 607.96 144.9 607.96 144.9 352.51"/><rect class="cls-15" x="272.83" y="484.07" width="15.75" height="105.06"/><polygon class="cls-16" points="297.49 484.07 288.58 484.07 272.83 484.07 272.83 589.13 272.83 620.73 314.38 620.73 314.38 495.48 297.49 484.07"/><rect class="cls-17" x="79.9" y="373.77" width="15.29" height="228.15"/><polygon class="cls-18" points="120.43 378.77 120.43 622.06 128.84 622.06 128.84 384.51 120.43 378.77"/><polygon class="cls-19" points="120.43 378.77 113.1 373.77 95.19 373.77 79.9 373.77 79.9 601.92 79.9 629.22 128.84 629.22 128.84 622.06 128.84 384.51 120.43 378.77"/><polygon class="cls-20" points="184.26 360.83 182.85 363.05 182.85 591.26 193.84 591.26 193.84 373.77 184.26 360.83"/><rect class="cls-21" x="144.9" y="352.51" width="24.47" height="255.45"/><polygon class="cls-22" points="184.26 360.83 178.1 352.51 169.37 352.51 144.9 352.51 144.9 607.96 169.37 607.96 193.84 607.96 193.84 591.26 193.84 373.77 184.26 360.83"/><rect class="cls-23" x="211.55" y="423.94" width="13.73" height="167.33"/><polygon class="cls-24" points="247.03 589.13 247.03 467.04 255.86 459.41 244.75 423.94 225.28 423.94 211.55 423.94 211.55 591.26 211.55 740.98 260.49 740.98 260.49 589.13 247.03 589.13"/><polygon class="cls-25" points="255.86 459.41 247.03 467.04 247.03 589.13 260.49 589.13 260.49 474.19 255.86 459.41"/><polygon class="cls-26" points="263.91 452.46 255.86 459.41 247.03 467.04 247.03 589.13 260.49 589.13 272.83 589.13 272.83 484.07 288.58 484.07 288.58 452.46 263.91 452.46"/><rect class="cls-27" x="46.25" y="424.67" width="9.68" height="177.25"/><polygon class="cls-28" points="46.25 424.67 22.73 424.67 0 451.91 0 680.13 55.93 680.13 55.93 601.92 55.93 424.67 46.25 424.67"/></g><g class="cls-11"><polygon class="cls-29" points="807.68 108.41 807.68 65.36 860.03 65.36 884.86 119.52 884.86 188.68 869.59 188.68 869.59 468.17 831.79 468.17 831.79 108.41 807.68 108.41"/><polygon class="cls-30" points="602.55 187.52 602.55 48.56 642.27 48.56 667.23 88.01 652.12 108.41 652.12 451.37 624.21 451.37 624.21 187.52 602.55 187.52"/><polygon class="cls-31" points="729.3 74.89 690.71 74.89 690.71 43.97 715.53 0 767.88 0 767.88 116.3 754.62 125.35 754.62 499.93 690.71 499.93 690.71 477.69 729.3 477.69 729.3 74.89"/><rect class="cls-32" x="502.74" y="282.34" width="24.84" height="165.66"/><polygon class="cls-33" points="488.68 282.34 502.74 282.34 527.58 282.34 527.58 448 527.58 497.83 462.06 497.83 462.06 300.33 488.68 282.34"/><rect class="cls-34" x="807.68" y="108.41" width="24.11" height="359.76"/><polygon class="cls-35" points="767.88 116.3 767.88 499.93 754.62 499.93 754.62 125.35 767.88 116.3"/><polygon class="cls-36" points="767.88 116.3 779.44 108.41 807.68 108.41 831.79 108.41 831.79 468.17 831.79 511.22 754.62 511.22 754.62 499.93 754.62 125.35 767.88 116.3"/><polygon class="cls-37" points="667.23 88.01 669.45 91.52 669.45 451.37 652.12 451.37 652.12 108.41 667.23 88.01"/><rect class="cls-38" x="690.71" y="74.89" width="38.59" height="402.81"/><polygon class="cls-39" points="667.23 88.01 676.95 74.89 690.71 74.89 729.3 74.89 729.3 477.69 690.71 477.69 652.12 477.69 652.12 451.37 652.12 108.41 667.23 88.01"/><rect class="cls-40" x="602.55" y="187.52" width="21.65" height="263.84"/><polygon class="cls-41" points="568.26 448 568.26 255.48 554.33 243.46 571.86 187.52 602.55 187.52 624.21 187.52 624.21 451.37 624.21 687.45 547.03 687.45 547.03 448 568.26 448"/><polygon class="cls-42" points="554.33 243.46 568.26 255.48 568.26 448 547.03 448 547.03 266.76 554.33 243.46"/><polygon class="cls-43" points="541.63 232.5 554.33 243.46 568.26 255.48 568.26 448 547.03 448 527.58 448 527.58 282.34 502.74 282.34 502.74 232.5 541.63 232.5"/><rect class="cls-44" x="869.59" y="188.68" width="15.26" height="279.49"/><polygon class="cls-45" points="884.86 188.68 921.94 188.68 957.78 231.64 957.78 591.49 869.59 591.49 869.59 468.17 869.59 188.68 884.86 188.68"/></g><g class="cls-46"><polygon class="cls-47" points="340.67 315.38 340.67 281.56 373.49 281.56 389.06 324.11 389.06 378.46 379.49 378.46 379.49 598.07 355.78 598.07 355.78 315.38 340.67 315.38"/><polygon class="cls-48" points="212.04 377.55 212.04 268.36 236.95 268.36 252.6 299.35 243.13 315.38 243.13 584.86 225.62 584.86 225.62 377.55 212.04 377.55"/><polygon class="cls-49" points="291.52 289.04 267.32 289.04 267.32 253.73 282.89 230.2 315.71 230.2 315.71 321.58 307.39 328.69 307.39 623.02 267.32 623.02 267.32 605.55 291.52 605.55 291.52 289.04"/><rect class="cls-50" x="149.46" y="452.05" width="15.57" height="130.17"/><polygon class="cls-51" points="140.64 452.05 149.46 452.05 165.03 452.05 165.03 582.22 165.03 621.38 123.95 621.38 123.95 466.19 140.64 452.05"/><rect class="cls-52" x="340.67" y="315.38" width="15.12" height="282.68"/><polygon class="cls-53" points="315.71 321.58 315.71 623.02 307.39 623.02 307.39 328.69 315.71 321.58"/><polygon class="cls-54" points="315.71 321.58 322.96 315.38 340.67 315.38 355.78 315.38 355.78 598.07 355.78 631.89 307.39 631.89 307.39 623.02 307.39 328.69 315.71 321.58"/><polygon class="cls-55" points="252.6 299.35 253.99 302.11 253.99 584.86 243.13 584.86 243.13 315.38 252.6 299.35"/><rect class="cls-56" x="267.32" y="289.04" width="24.2" height="316.51"/><polygon class="cls-57" points="252.6 299.35 258.69 289.04 267.32 289.04 291.52 289.04 291.52 605.55 267.32 605.55 243.13 605.55 243.13 584.86 243.13 315.38 252.6 299.35"/><rect class="cls-58" x="212.04" y="377.55" width="13.58" height="207.32"/><polygon class="cls-59" points="190.54 582.22 190.54 430.95 181.81 421.5 192.8 377.55 212.04 377.55 225.62 377.55 225.62 584.86 225.62 770.37 177.23 770.37 177.23 582.22 190.54 582.22"/><polygon class="cls-60" points="181.81 421.5 190.54 430.95 190.54 582.22 177.23 582.22 177.23 439.81 181.81 421.5"/><polygon class="cls-61" points="173.84 412.89 181.81 421.5 190.54 430.95 190.54 582.22 177.23 582.22 165.03 582.22 165.03 452.05 149.46 452.05 149.46 412.89 173.84 412.89"/><rect class="cls-62" x="379.49" y="378.46" width="9.57" height="219.61"/><polygon class="cls-63" points="389.06 378.46 412.31 378.46 434.78 412.21 434.78 694.97 379.49 694.97 379.49 598.07 379.49 378.46 389.06 378.46"/></g><polygon class="cls-64" points="437.9 213.28 437.9 561.93 499.48 561.93 499.48 159.12 457.7 159.12 437.9 213.28"/><polygon class="cls-65" points="609.79 185.28 609.79 545.13 663.17 545.13 663.17 142.32 631.48 142.32 609.79 185.28"/><polygon class="cls-66" points="592.83 137.73 592.83 593.69 531.24 593.69 531.24 93.76 573.02 93.76 592.83 137.73"/><polygon class="cls-67" points="690.54 349.24 690.54 541.76 742.83 541.76 742.83 326.26 711.79 326.26 690.54 349.24"/><polygon class="cls-68" points="775.29 394.09 775.29 591.59 723.01 591.59 723.01 376.1 754.04 376.1 775.29 394.09"/><polygon class="cls-69" points="541.83 219.11 541.83 604.98 480.24 604.98 480.24 202.17 522.02 202.17 541.83 219.11"/><polygon class="cls-70" points="623.62 202.17 623.62 571.46 562.03 571.46 562.03 168.65 603.81 168.65 623.62 202.17"/><polygon class="cls-71" points="707.48 360.52 707.48 781.21 645.89 781.21 645.89 281.28 687.67 281.28 707.48 360.52"/><polygon class="cls-72" points="379.7 325.4 379.7 685.25 450.07 685.25 450.07 282.44 408.3 282.44 379.7 325.4"/><g class="cls-73"><polygon class="cls-74" points="978.78 139.32 978.78 96.27 1020.55 96.27 1040.36 150.43 1040.36 219.59 1028.18 219.59 1028.18 499.07 998.01 499.07 998.01 139.32 978.78 139.32"/><polygon class="cls-75" points="815.08 218.43 815.08 79.47 846.77 79.47 866.7 118.91 854.64 139.32 854.64 482.27 832.36 482.27 832.36 218.43 815.08 218.43"/><polygon class="cls-76" points="916.22 105.79 885.43 105.79 885.43 74.88 905.24 30.91 947.01 30.91 947.01 147.2 936.43 156.25 936.43 530.83 885.43 530.83 885.43 508.6 916.22 508.6 916.22 105.79"/><rect class="cls-77" x="735.43" y="313.24" width="19.82" height="165.66"/><polygon class="cls-78" points="724.21 313.24 735.43 313.24 755.25 313.24 755.25 478.9 755.25 528.74 702.97 528.74 702.97 331.23 724.21 313.24"/><rect class="cls-79" x="978.78" y="139.32" width="19.24" height="359.76"/><polygon class="cls-80" points="947.01 147.2 947.01 530.83 936.43 530.83 936.43 156.25 947.01 147.2"/><polygon class="cls-81" points="947.01 147.2 956.24 139.32 978.78 139.32 998.01 139.32 998.01 499.07 998.01 542.12 936.43 542.12 936.43 530.83 936.43 156.25 947.01 147.2"/><polygon class="cls-82" points="866.7 118.91 868.47 122.42 868.47 482.27 854.64 482.27 854.64 139.32 866.7 118.91"/><rect class="cls-83" x="885.43" y="105.79" width="30.79" height="402.81"/><polygon class="cls-84" points="866.7 118.91 874.45 105.79 885.43 105.79 916.22 105.79 916.22 508.6 885.43 508.6 854.64 508.6 854.64 482.27 854.64 139.32 866.7 118.91"/><rect class="cls-85" x="815.08" y="218.43" width="17.28" height="263.84"/><polygon class="cls-86" points="787.72 478.9 787.72 286.39 776.6 274.37 790.59 218.43 815.08 218.43 832.36 218.43 832.36 482.27 832.36 718.35 770.78 718.35 770.78 478.9 787.72 478.9"/><polygon class="cls-87" points="776.6 274.37 787.72 286.39 787.72 478.9 770.78 478.9 770.78 297.67 776.6 274.37"/><polygon class="cls-88" points="766.47 263.41 776.6 274.37 787.72 286.39 787.72 478.9 770.78 478.9 755.25 478.9 755.25 313.24 735.43 313.24 735.43 263.41 766.47 263.41"/><rect class="cls-89" x="1028.18" y="219.59" width="12.18" height="279.49"/><polygon class="cls-90" points="1040.36 219.59 1069.96 219.59 1098.55 262.54 1098.55 622.39 1028.18 622.39 1028.18 499.07 1028.18 219.59 1040.36 219.59"/></g></g></g></svg>