<svg xmlns="http://www.w3.org/2000/svg" xmlns:xlink="http://www.w3.org/1999/xlink" viewBox="0 0 365.04 849.67"><defs><style>.cls-1{fill:url(#linear-gradient);}.cls-2{fill:url(#linear-gradient-2);}.cls-3{fill:url(#linear-gradient-3);}.cls-4{fill:url(#linear-gradient-4);}.cls-5{fill:url(#linear-gradient-5);}.cls-6{fill:url(#linear-gradient-6);}.cls-7{fill:url(#linear-gradient-7);}</style><linearGradient id="linear-gradient" x1="96.32" y1="849.67" x2="96.32" y2="849.32" gradientUnits="userSpaceOnUse"><stop offset="0" stop-color="#311417" stop-opacity="0"/><stop offset="0.35" stop-color="#311417"/><stop offset="0.85" stop-color="#311417"/><stop offset="1" stop-color="#8a3458"/></linearGradient><linearGradient id="linear-gradient-2" x1="161.4" y1="0.35" x2="161.4" y2="0" xlink:href="#linear-gradient"/><linearGradient id="linear-gradient-3" x1="364.86" y1="831.28" x2="364.86" y2="828.33" xlink:href="#linear-gradient"/><linearGradient id="linear-gradient-4" x1="91.77" y1="849.67" x2="91.77" y2="849.31" xlink:href="#linear-gradient"/><linearGradient id="linear-gradient-5" x1="15.45" y1="339.3" x2="15.45" y2="332.5" xlink:href="#linear-gradient"/><linearGradient id="linear-gradient-6" x1="182.43" y1="849.67" x2="182.43" y2="0.21" xlink:href="#linear-gradient"/><linearGradient id="linear-gradient-7" x1="262.2" y1="95.02" x2="262.2" y2="84.12" xlink:href="#linear-gradient"/></defs><title>Asset 49</title><g id="Layer_2" data-name="Layer 2"><g id="TOP_L" data-name="TOP L"><path class="cls-1" d="M99.55,849.32a3.44,3.44,0,0,1,0,.35H93.25q-.2-.11-.14-.22c0-.08.08-.12.12-.12Z"/><path class="cls-2" d="M159.7.34a2.72,2.72,0,0,1,0-.34h3.35q0,.17,0,.35Z"/><path class="cls-3" d="M365,831.27h-.35q0-1.47,0-2.95a1.91,1.91,0,0,1,.35,0Z"/><path class="cls-4" d="M93.23,849.32q0,.17,0,.34H90.32a1.77,1.77,0,0,0,0-.36Z"/><path class="cls-5" d="M16.22,332.5v6.8C14.17,337.45,14.14,335.21,16.22,332.5Z"/><path class="cls-6" d="M364.82,831.16q0-1.35,0-2.7a2.41,2.41,0,0,0-1.64-2.61,5.58,5.58,0,0,1-2.31-2c-3.87-4.71-8.34-8.47-14.8-8.77-5-.23-10-.53-14.85-2a40.92,40.92,0,0,0-4.1-.76c-4.91-1-9.68-2.16-12.17-7.28a5,5,0,0,0-3.38-2.94,16.12,16.12,0,0,1-7.88-4.47c-1.66-1.54-2.73-4-5.6-3.65-2.42-2.19-5.58-2.76-8.5-3.83a2.24,2.24,0,0,1-1.61-1.74c-.46-2.4-2.49-4.2-2.54-6.76a1.25,1.25,0,0,0-.55-.87A6,6,0,0,1,282.6,776a3.62,3.62,0,0,0-.63-2c-1.54-1.88-1.74-4.16-2.15-6.42a1.56,1.56,0,0,1,1-2,19.67,19.67,0,0,0,5.46-3.8,5.11,5.11,0,0,0,1.55-4.37c-.22-1.59-.3-3.19-.48-4.78-1.87-16.27-4.94-32.37-6.74-48.64a198.32,198.32,0,0,1-1.49-22.28c0-2.35.79-2.92,2.94-1.82,1.6.82,2.31.61,2.45-1.2a2.74,2.74,0,0,1,.28-1c1.61-3.26,1.26-6.48-.25-9.66a3.05,3.05,0,0,1-.17-2.42,51,51,0,0,0,1.92-9.39c.21,1.15.33,2.08.48,3,.58,3.52,1.21,7,3.38,10,1,1.41,2.4,2.6,4.22,2.12s1.73-2.35,1.84-3.84c.18-2.36-.14-4.75.14-7.1,1.55-12.95,1.75-26,2-39,.1-5.64-.26-11.28-.3-16.91,0-7-1.71-13.21-6.2-18.6a7.45,7.45,0,0,1-1.63-6.23c.62-4.37.33-8.61-2.74-12.25a5.8,5.8,0,0,1-1.33-5.09,3.2,3.2,0,0,0-.25-2.25c-1.36-2.33-2-5.08-3.9-7.09a2.32,2.32,0,0,1-.51-3,8.13,8.13,0,0,0,.74-6.08c-.36-1.52.39-2.21,1.67-2.62a4,4,0,0,1,2.66.15c1.64.6,3.35,1,5,1.45,1.91.56,2.65-.17,2.32-2.1-1.12-6.42-4.08-12.25-5.91-18.43a7.69,7.69,0,0,0-.69-1.29c-1.1-2.1-2.39-4.09-3.41-6.23a7.7,7.7,0,0,0-4.21-4.14c-.9-.35-2.08-.79-2.05-1.85s1.39-1.17,2.22-1.61a1.38,1.38,0,0,1,.6-.18,8,8,0,0,0,4.84-2.22,17,17,0,0,1,2.81-1.81c4.67-2.47,6.31-7,7.91-11.58a1.5,1.5,0,0,0,0-1c-1.12-2.6-.91-5.47-1.66-8.16-3-10.6-5.79-21.21-6.12-32.33-.12-4-.87-8.05-3.28-11.51a8.44,8.44,0,0,0-8.56-3.61c-2.85.36-3.49.09-3.81-2.75a80.32,80.32,0,0,0-1.46-9.7,1.8,1.8,0,0,1,.8-2.17,2.46,2.46,0,0,1,2.58-.14,5,5,0,0,1,1.62,1.61,42.45,42.45,0,0,1,3.19,5.15c2.11,4.11,5.35,6.93,9.24,9.38,3,1.89,6,2,9.16,1.64a2.11,2.11,0,0,0,2-1.27,2.51,2.51,0,0,0-.65-2.51c-.85-1-2.12-1.28-3.3-1.68a13.87,13.87,0,0,1-6.87-4.52,37.35,37.35,0,0,0-15.94-12.12A5.57,5.57,0,0,1,269,410.4c-.59-7.07-4.35-11.54-11.11-13.57a6.49,6.49,0,0,1-3-1.69,3.52,3.52,0,0,0-4.37-.9,3.76,3.76,0,0,1-2.64.07c-2.94-.69-3.59-.32-4.32,2.56s-1.73,5.69-1.88,8.76a44.39,44.39,0,0,1-4.36-8.79,11.24,11.24,0,0,0-2.41-4.34,4.78,4.78,0,0,1-1.1-4.65c.74-3.09.86-6.33,2.38-9.23a4.94,4.94,0,0,0,.13-3.09,55.27,55.27,0,0,1-1-10.79,3.45,3.45,0,0,1,1-2.67c.41,1,.18,1.94.58,2.77.55,1.12,1.28,2.18,2.62,2.06s1.44-1.5,1.52-2.59a5.18,5.18,0,0,1,1-3.33,3.68,3.68,0,0,0,.2-5,11.86,11.86,0,0,1-2-5.85,9.71,9.71,0,0,0-1.07-4c-1.73-3.15-2.8-6.73-5.73-9.13a2.82,2.82,0,0,1-.79-1.45,29,29,0,0,0-1.81-4.67,2.45,2.45,0,0,1,0-2.58,4.94,4.94,0,0,0-.05-5.36c-1.42-2.47-2.5-5.21-4.22-7.41a53.83,53.83,0,0,1-3.58-6c-2-3.41-4.64-6.15-9.05-6.1-1.44,0-1.82-.7-1.42-2a4.18,4.18,0,0,0,0-2.68,12.93,12.93,0,0,1-.6-4.95,18.79,18.79,0,0,0-.52-4.35,5,5,0,0,0-3.79-4,24.26,24.26,0,0,0-4.1-.8,1.65,1.65,0,0,1-1.58-1.41,1.68,1.68,0,0,1,.79-2c4.32-2.61,6.47-6.92,8.92-11.08,2.95-5,1.62-14.56-2.43-18.6-.64-.64-1.15-1.41-1.79-2a2.39,2.39,0,0,1-.07-3.81,9,9,0,0,0,2.21-5.29,60.8,60.8,0,0,0,.29-6.46,6.07,6.07,0,0,0-1.49-4.23c-1.34-1.6-2.53-3.33-3.88-4.93-.78-.93-.62-1.64.16-2.54,1.32-1.52,3.07-1.81,4.88-2a19,19,0,0,0,7.18-2.07c2.22-1.26,3.11-2.94,2.58-5.4-.76-3.49-1.84-6.88-4.44-9.53a4.42,4.42,0,0,1-1.27-3c-.11-2,.29-2.39,2.1-1.54a11.55,11.55,0,0,0,6.32.94,4,4,0,0,1,3.55,1.32c1.65,1.7,3.31,3.39,5,5,4.21,4,8.86,7,15.07,6.28a5.49,5.49,0,0,1,2.08.15c5.41,1.48,11,1.42,16.53,2.35a18.14,18.14,0,0,0,3.52.41,38.08,38.08,0,0,0,25.15-9.79c3.63-3.27,6.3-7.39,5.49-12.72a80.43,80.43,0,0,1-.65-8.32c-.38-8.11-3.51-15.3-7.06-22.34-2.4-4.75-6.18-8.56-9.45-12.69a14.83,14.83,0,0,0-11.3-5.54,27.31,27.31,0,0,0-8.92.69,3.35,3.35,0,0,1-2.65-.05c-1.53-.85-3.23-1.31-4.82-2-2-.87-2.18-1.21-.93-3.06a4.29,4.29,0,0,0,0-5.24c-.84-1.28-1.69-2.55-2.62-3.78a4.44,4.44,0,0,1-1.21-2.4c-.12-3.76-2.77-6.27-4.54-9.2-1-1.6-1.87-3.22-1.74-5,.43-5.7-4.81-8.68-9.16-10.05-3-1-5.86-2.16-7.92-4.66-.86-1.05-1.7-1.4-2.82-.52-.44.34-.83.82-1.46.42-1.32-.85-2.22-.11-3.1.77-.55.54-1.17,1-1.74,1.5s-1.06.41-1.51-.27c-1.5-2.3-1.3-4,.76-5.87a12.57,12.57,0,0,0,1.11-1.25c3.61-4.33,5.89-9.45,8.36-14.43a12.89,12.89,0,0,1,3.88-4.83,8.09,8.09,0,0,0,2.45-2.81,8.44,8.44,0,0,0-1.83-10.5,12.52,12.52,0,0,1-4.15-7.73c-.37-3.14-2.2-6-1.55-9.35a3,3,0,0,0-.37-1.4c-.86-2.43-1.52-4.93-2.27-7.39-3.37-11.1-9.76-19.89-19.68-26.09-5.51-3.45-11.53-5.48-17.71-7.28C176.79-.13,169.84.34,162.9.21h-3A7.21,7.21,0,0,0,157.6.4c-4.34,1.37-8.81,1.11-13.26,1.09a17.4,17.4,0,0,0-5,.54,38.53,38.53,0,0,0-18.3,11.63,184.69,184.69,0,0,0-11.72,15.49,5.73,5.73,0,0,0-1,4.75,3.6,3.6,0,0,1-.34,3,9,9,0,0,0-1.55,6.14,7.68,7.68,0,0,1-.6,3.48c-1.87,4.19-2.45,8.7-3.28,13.12s-2.39,9-2.49,13.75a8.29,8.29,0,0,1-1.85,5c-3.4,4.28-2.18,9,2.84,11a5.37,5.37,0,0,1,3.41,3.09c.84,2.06,2.72,2.9,4.8,3.23,1,.16,2.11-.23,1.94-1.32-.44-2.76,1.34-2.84,3.19-3,.55-.05,1.1-.16,1.65-.26,3-.59,3.83.11,3.78,3.2,0,1.86-1,2.78-2.7,3.48-4.27,1.72-8.79,3.33-9.16,9.06,0,.14-.16.22-.32.24-.59-.35-.64-1-.84-1.6a8.21,8.21,0,0,0-6-5.34A12.6,12.6,0,0,0,95,100c-6.41,1.18-11.42,5.11-16.26,9-3.31,2.67-6.4,5.62-10.11,7.7a87,87,0,0,0-18.76,13.86c-1.44,1.42-1.73,1.31-2.19-.67-.95-4.07-1.5-8.22-2.41-12.3a18.09,18.09,0,0,0-1.15-4c-.83-1.72-1.61-2-3.31-1.25-1.9.83-2.33.64-2.91-1.46-.67-2.41-1-4.92-2.54-7a3.26,3.26,0,0,1-.27-2.44,4.48,4.48,0,0,0-1.32-4,7.46,7.46,0,0,1-2-3.41q-3.68-13.73-7.2-27.5A2.7,2.7,0,0,1,24.74,64c1.23-1.6.68-3.15,0-4.73a14.12,14.12,0,0,1-1.39-5.85A10.34,10.34,0,0,0,22.6,49a68,68,0,0,1-2.9-9.81A10.26,10.26,0,0,0,19,37c-.68-1.32-1.82-1.77-2.89-.82s-2.23.95-3.61.85c-3.67-.27-5.41,1.9-4.51,5.38a83.11,83.11,0,0,1,2.51,10.78,5,5,0,0,0,.82,2.35,11.23,11.23,0,0,1,1.93,7.12c0,1.31.17,2.61,1.43,3.26a4,4,0,0,1,1.93,3C18.9,78.46,21.2,88,23.38,97.59c.14.61.42,1.26,0,1.82-1.47,2-.51,3.68.78,5.26a2.65,2.65,0,0,1,.63,2.51c-.24.93-.48,1.69-1.6.72a2.54,2.54,0,0,0-2.4-.28c-1.83.42-3.65.91-5.48,1.36-1.2.29-2.24.71-2.6,2.09-.24.94-1.14,1.13-1.92,1.43A57.32,57.32,0,0,0,2.76,116,4.92,4.92,0,0,0,0,119.17v.42c.79,3.29,1.32,3.66,4.75,3.39,2.67-.22,5.05-1.51,7.66-2s2.64-.52,3.28,2q3.93,15.71,8,31.4a6.47,6.47,0,0,1-.69,5.35,62.38,62.38,0,0,0-8.88,25.64c-.91,8.37-1.17,16.45,2.7,24.29A15.92,15.92,0,0,1,18.35,221c-.44,1.67-.53,3.71.69,5a9.76,9.76,0,0,1,2.67,7.56,3.35,3.35,0,0,0,.2.81A52.21,52.21,0,0,1,23,250.28a3.39,3.39,0,0,0,.28,2c1.24,2.2,1.35,4.64,1.65,7.06.38,3.17.55,6.42,2.77,9a3.75,3.75,0,0,1,.5,2.21c.53,6.24.45,12.55,2.27,18.62a1.37,1.37,0,0,1-.82,1.84,34.35,34.35,0,0,1-5.93,2.6c-6.09,2-8.93,7.2-10.22,12.58S12.89,317.42,17,322c.41.45,1.11,1.1.72,1.61-1.53,2-1.46,4.77-3.48,6.56-3,2.62-3.9,6.11-2.53,9.23.62,1.41.64,2.38-.54,3.45a5.87,5.87,0,0,0-1.31,2.59c-.37,1.1-.55,2.2.41,3.11s1.89.64,2.93.28c2.43-.82,2.55-.72,3.14,1.9.63,2.86,1.12,5.75,1.89,8.57a2.47,2.47,0,0,0,3,2,2.61,2.61,0,0,0,2.29-3,14.8,14.8,0,0,0-1.27-4.39,52.53,52.53,0,0,1,4,15.72c.31,3.89-.39,7.91.8,11.64a36.1,36.1,0,0,1,1.26,12.08,6.24,6.24,0,0,0,3.43,6.07c3.52,1.67,6.67,4.42,11,4a2,2,0,0,1,2.42,1.56,14.67,14.67,0,0,1-.15,6.21c-1,3.8-1.74,7.69-3.85,11.12a5.44,5.44,0,0,0-.39,1.83,42.06,42.06,0,0,0-.42,8.13,8.76,8.76,0,0,1-.51,3.28c-.88,2.24-.3,3.24,2,3.68.89.17,1.79.3,2.68.42a3,3,0,0,1,2.51,1.63A9.94,9.94,0,0,0,49,443.39c2.71,2.8,5.09,5.5,2.75,10-2,3.82-.36,7.93.65,11.77a12.81,12.81,0,0,1,.64,5.69,31.38,31.38,0,0,0,0,12.23c.74,3.48-.51,5.52-3.78,6.72a6.69,6.69,0,0,0-3.43,3.2c-3.46,5.81-6.49,11.85-9.46,17.92C36,511.78,35,513,36,513.7s1.83-.65,2.4-1.46a8.71,8.71,0,0,1,5.17-3.31c1.65-.45,2-.11,1.91,1.58-.08,2.58-.92,5.23-.45,7.69,1,5.13-.23,9.81-1.42,14.71C42.12,539.13,42,545.6,41.59,552c-.39,5.76-.49,11.55-1.15,17.28-.81,7,1.22,12.78,6.62,17.35a8.92,8.92,0,0,1,1.34,1.32c1.74,2.24,3.25,2.36,5.32.42a25.77,25.77,0,0,0,2.67-3.21,10.2,10.2,0,0,1,2-2.13c.46-.34,1-.64,1.53-.23s.37,1,.15,1.52a18.16,18.16,0,0,1-2.37,4.17c-2.74,3.44-3.06,7.36-2.5,11.49a14.3,14.3,0,0,0,2.39,6.83c.67.9.8,1.85-.23,2.55-2.65,1.78-3.89,4.56-5,7.31-2,4.94-3.46,10-2.32,15.45a1.59,1.59,0,0,1-.17,1.4c-2.8,3.48-2.6,7.67-2.78,11.76a8.9,8.9,0,0,1-.72,3.44,8.55,8.55,0,0,0-.68,5.9,2.8,2.8,0,0,1-.25,2.22,7.74,7.74,0,0,0-.81,4.86,14.22,14.22,0,0,1-.21,3.52c-.46,3-1.53,6-1,9.09a12.58,12.58,0,0,1,0,3.95c-1,7.25-1.79,14.51-.94,21.84a11.65,11.65,0,0,1-2.21,8.08c-7.6,11.2-8.49,23.24-4,35.71a52.54,52.54,0,0,1,3.3,19.43c-.16,6.26.36,12.54-.41,18.79-.64,5.18,1.58,9.19,5.22,12.61a14.39,14.39,0,0,0,1.27,1.09,2.75,2.75,0,0,1,1.14,2.92c-.33,2-.48,4-.81,6-.87,5.24-1,10.3,3,14.51a3,3,0,0,1,.48,2.77,45.5,45.5,0,0,0-.45,7.07c0,5.29,2.23,10.18,2.58,15.42.19,2.91,1.84,4.07,4.88,4.08,11.35,0,22.67.94,34,.89h8.77a36.13,36.13,0,0,0,5.21-.23,71.41,71.41,0,0,0,16-2.68c2.92-.89,3.44-1.66,3.45-4.65,0-3.62.11-7.25,0-10.87-.28-8.08-3.69-14.17-11.42-17.38q-1.25-.52-2.48-1.11c-.78-.37-1.63-.89-1.66-1.75-.12-2.89-1.64-4.92-3.64-6.76a5,5,0,0,1-.86-1.67c-.8-1.72-.78-1.77,1.2-1.84,1.42-.05,2.9,0,3.53-1.63a4,4,0,0,0-.91-4.26,8.71,8.71,0,0,1-1.94-3c-.83-2.53-2.8-4.5-3.42-7.13a2.33,2.33,0,0,0-1-1.28c-2.5-1.74-2.78-4.69-2.51-7s-.13-3.8-1.77-5.28c-1.34-1.21-1.08-2.11.65-2.68A8.16,8.16,0,0,0,101,766.7a15.35,15.35,0,0,0,4.9-12.21c0-1-1-2.18-.33-3s2-.26,3-.38c4.71-.57,6.68-4.76,4.09-8.76a10,10,0,0,0-5.25-3.94,24.93,24.93,0,0,0-4.11-.86,8.77,8.77,0,0,0,5.82-5.49A27.68,27.68,0,0,0,111,721.21c-.12-8.42-.47-16.84-.42-25.27a12.37,12.37,0,0,1,1.9-6.92,13.58,13.58,0,0,0,2.52-6.36c.24-3.68,1-7.3,1.11-11a28.19,28.19,0,0,1,3.4-12.61,78.42,78.42,0,0,0,5.49-13.3,31.84,31.84,0,0,0,1.62-8.17A25.63,25.63,0,0,1,129,627.49a22,22,0,0,0,2.09-9.95,23.23,23.23,0,0,1,.83-6.4c2.22-8.43,3.87-17,5.73-25.49,1.48-6.8,2.79-13.65,4.91-20.31,1.73-5.43,3.47-10.9,4-16.64a7.75,7.75,0,0,1,.67-2.41,44.9,44.9,0,0,1,8.13-12.81c.94-1,1.85-1.49,3.08-.74a28.16,28.16,0,0,0,12.89,3.85,3,3,0,0,1,2.67,2c1.05,2.28,2.51,4.35,3.49,6.66a2.58,2.58,0,0,0,2.35,1.77c2.2.15,2.2.19,1.5,2.44-.95,3.07.07,7.21,2.56,8.4s3.71,3,4.91,5.18a6.42,6.42,0,0,0,5,3.65,4.42,4.42,0,0,1,3.67,2.7,34.26,34.26,0,0,1,3.76,10.15,17.16,17.16,0,0,0,1.41,4.36c1.65,3.53,3,7.19,5.44,10.33a3.28,3.28,0,0,1,.6,1.33,4.72,4.72,0,0,1-1.26,4.05c-.88,1.06-1.79-.06-2.63-.33-2.72-.87-5.54-1.38-8.29-2.12s-4,.94-3.2,3.52a3.62,3.62,0,0,1,.27,2,47.25,47.25,0,0,1-5.71,13.17c-.53.78-1.58,1.33-1.12,2.49a3.14,3.14,0,0,0,2.83,1.84,26.48,26.48,0,0,0,6.88-.17,16.91,16.91,0,0,1,6.23.21c1,.24,1.62.78,1.44,1.91a27.25,27.25,0,0,0,1.35,13.17,6,6,0,0,1-.48,5,13.31,13.31,0,0,0-1.51,7.69c.16,1.67.34,3.29-.56,4.87a2.4,2.4,0,0,0,.3,2.39,4.14,4.14,0,0,1,.88,1.88c.05,3.57,1,7,1.34,10.53a68.59,68.59,0,0,0,1.22,8c1.91,8.64,4.88,17,6.37,25.76a9.46,9.46,0,0,0,1.52,3.87,6,6,0,0,1,.58,5.59,55.78,55.78,0,0,1-3.21,7,19.64,19.64,0,0,0-1.9,11.57,21.93,21.93,0,0,1-.37,10.53,8.43,8.43,0,0,0,2,8.57,12.17,12.17,0,0,1,3,11.8,8.92,8.92,0,0,0,3.08,9.39,5.86,5.86,0,0,1,2,3.59,36.57,36.57,0,0,0,2.62,9.85,4.57,4.57,0,0,1,.31,2.67c-.63,4-.78,8.05-1.46,12-1,6.1-2.82,12.07-3.24,18.29a3.82,3.82,0,0,1-.65,1.75A31.38,31.38,0,0,0,213,828a126.34,126.34,0,0,0-2.42,16.53c-.27,3.38.57,4.28,4,4.8a3.14,3.14,0,0,1,1.6.36h54.36a30.49,30.49,0,0,1,10.45,0h54.78A65,65,0,0,0,347,847.81a48.1,48.1,0,0,0,15.39-7.22,4.72,4.72,0,0,0,2.21-3.81C364.63,834.9,365,833,364.82,831.16ZM204.76,105.38a3.55,3.55,0,0,0,.56-2.81c-.22-1.71,1.19-3.1,1.72-4.7,1,.44.91,1.27,1,1.89a25.36,25.36,0,0,0,4.49,9.52c.9,1.21,1.12,3.93.37,4.56-1.27,1.06-5.06,1-6.14,0l-1.88-6.09A1.54,1.54,0,0,1,204.76,105.38ZM229.06,413c-2-.84-.89-2.48-1-3.76A4.24,4.24,0,0,1,229.06,413Zm31.55-7.93a1.83,1.83,0,0,0-2.23-.61,2.32,2.32,0,0,0-1.62,2.21c.07,1.74.17,3.48.38,5.2.12,1-.29,1.31-1.21,1.42-3.4.41-5.17-1.34-4.54-4.66.47-2.45,1.11-4.86,1.65-7.3a1.32,1.32,0,0,1,1.77-1.17c1,.18,1.93.26,2.89.38,3.26.43,4.45,1.89,4.39,5.44C261.27,406,261,405.47,260.61,405.09Z"/><path class="cls-7" d="M265.08,87.24c-.28,1.66-.71,4-1.07,6.28-.33,2.12-1.93,1.42-3.07,1.29s-1.91-.74-1.54-2.28a50.42,50.42,0,0,0,1-6.55c.18-1.75,1.36-1.93,2.65-1.83C264.6,84.26,265.14,85,265.08,87.24Z"/></g></g></svg>